<svg width="30" height="30" viewBox="0 0 30 30" fill="none" xmlns="http://www.w3.org/2000/svg">
<path fill-rule="evenodd" clip-rule="evenodd" d="M6.18237 11.5119C6.18237 6.28893 10.2905 2 15.3772 2C20.4639 2 24.5721 6.28893 24.5721 11.5119C24.5721 13.3955 24.0048 14.8944 23.1255 16.3174L16.1897 27.5435C16.0171 27.827 15.7092 28 15.3772 28C15.0453 28 14.7374 27.827 14.5648 27.5435L7.62898 16.3174C6.7497 14.8945 6.18237 13.3955 6.18237 11.5119ZM22.6697 11.5119C22.6697 7.279 19.3963 3.90239 15.3772 3.90239C11.3582 3.90239 8.08476 7.279 8.08476 11.5119C8.08476 13.0363 8.48429 14.0711 9.25393 15.3167L15.3772 25.225L21.5005 15.3167C22.2702 14.0711 22.6697 13.0363 22.6697 11.5119ZM15.3772 6.4389C12.7619 6.4389 10.6213 8.5795 10.6213 11.1949C10.6213 13.8102 12.7618 15.9508 15.3772 15.9508C17.9926 15.9508 20.1332 13.8102 20.1332 11.1949C20.1332 8.5795 17.9926 6.4389 15.3772 6.4389ZM18.2308 11.1949C18.2308 9.60761 16.9645 8.34129 15.3772 8.34129C13.79 8.34129 12.5237 9.60761 12.5237 11.1949C12.5237 12.7821 13.79 14.0484 15.3772 14.0484C16.9645 14.0484 18.2308 12.7821 18.2308 11.1949Z" fill="#747474"/>
<mask id="mask0_4665_2642" style="mask-type:alpha" maskUnits="userSpaceOnUse" x="6" y="2" width="19" height="26">
<path fill-rule="evenodd" clip-rule="evenodd" d="M6.18237 11.5119C6.18237 6.28893 10.2905 2 15.3772 2C20.4639 2 24.5721 6.28893 24.5721 11.5119C24.5721 13.3955 24.0048 14.8944 23.1255 16.3174L16.1897 27.5435C16.0171 27.827 15.7092 28 15.3772 28C15.0453 28 14.7374 27.827 14.5648 27.5435L7.62898 16.3174C6.7497 14.8945 6.18237 13.3955 6.18237 11.5119ZM22.6697 11.5119C22.6697 7.279 19.3963 3.90239 15.3772 3.90239C11.3582 3.90239 8.08476 7.279 8.08476 11.5119C8.08476 13.0363 8.48429 14.0711 9.25393 15.3167L15.3772 25.225L21.5005 15.3167C22.2702 14.0711 22.6697 13.0363 22.6697 11.5119ZM15.3772 6.4389C12.7619 6.4389 10.6213 8.5795 10.6213 11.1949C10.6213 13.8102 12.7618 15.9508 15.3772 15.9508C17.9926 15.9508 20.1332 13.8102 20.1332 11.1949C20.1332 8.5795 17.9926 6.4389 15.3772 6.4389ZM18.2308 11.1949C18.2308 9.60761 16.9645 8.34129 15.3772 8.34129C13.79 8.34129 12.5237 9.60761 12.5237 11.1949C12.5237 12.7821 13.79 14.0484 15.3772 14.0484C16.9645 14.0484 18.2308 12.7821 18.2308 11.1949Z" fill="white"/>
</mask>
<g mask="url(#mask0_4665_2642)">
</g>
</svg>
