<?xml version="1.0" encoding="UTF-8"?>
<svg width="14px" height="16px" viewBox="0 0 14 16" version="1.1" xmlns="http://www.w3.org/2000/svg" xmlns:xlink="http://www.w3.org/1999/xlink">
    <title>9C3D22F3-38E6-4B8C-B509-E0BCE11EFCE4@1x</title>
    <defs>
        <filter id="filter-1">
            <feColorMatrix in="SourceGraphic" type="matrix" values="0 0 0 0 1.000000 0 0 0 0 1.000000 0 0 0 0 1.000000 0 0 0 1.000000 0"></feColorMatrix>
        </filter>
    </defs>
    <g id="Symbols" stroke="none" stroke-width="1" fill="none" fill-rule="evenodd">
        <g id="Symbols-/-Buttons-/-Primary-Rounded-/-Primary-/-Micro-/-Account---My-Account" transform="translate(-15.000000, -7.000000)">
            <g id="Symbols-/-Icons-/-Hamburger-Menu-/-Destinations-/-Account" transform="translate(13.000000, 6.000000)" filter="url(#filter-1)">
                <g>
                    <path d="M15.403,16.3333333 L14.0696667,16.3333333 C14.0696667,13.894 11.7956667,11.9086667 9.00033333,11.9086667 C6.20433333,11.9086667 3.93033333,13.894 3.93033333,16.3333333 L2.597,16.3333333 C2.597,13.158 5.46966667,10.5753333 9.00033333,10.5753333 C12.5303333,10.5753333 15.403,13.158 15.403,16.3333333 M8.68166667,3 C10.2443333,3 11.515,4.27066667 11.515,5.83333333 C11.515,7.39533333 10.2443333,8.66666667 8.68166667,8.66666667 C7.11966667,8.66666667 5.84833333,7.39533333 5.84833333,5.83333333 C5.84833333,4.27066667 7.11966667,3 8.68166667,3 M8.68166667,9.99933333 C10.979,9.99933333 12.8483333,8.13066667 12.8483333,5.83333333 C12.8483333,3.53533333 10.979,1.66666667 8.68166667,1.66666667 C6.38433333,1.66666667 4.515,3.53533333 4.515,5.83333333 C4.515,8.13066667 6.38433333,9.99933333 8.68166667,9.99933333" id="Fill-1" fill="#DB0A81"></path>
                </g>
            </g>
        </g>
    </g>
</svg>