<svg width="136" height="144" viewBox="0 0 136 144" fill="none" xmlns="http://www.w3.org/2000/svg">
<g filter="url(#filter0_d_3090_16998)">
<rect width="97.4949" height="59.5859" rx="4.57715" transform="matrix(0.961835 0.273629 -0.274098 0.961702 17.3324 58.0187)" fill="white"/>
<rect x="0.131161" y="0.235596" width="97.1134" height="59.2045" rx="4.38643" transform="matrix(0.961835 0.273629 -0.274098 0.961702 17.402 57.9918)" stroke="#B3B3B3" stroke-width="0.381429"/>
</g>
<path d="M45.1453 79.8529C46.414 80.3807 47.3382 79.4942 48.7069 77.5656C48.9869 77.1683 49.2265 76.7786 49.312 76.5787C49.8516 75.2871 49.0944 74.1511 48.1108 73.7425C47.2939 73.4004 46.569 73.4709 45.9607 73.9512C45.5065 74.3085 45.1102 74.9303 44.6825 75.9628C44.2392 77.0339 44.0367 77.7775 44.0558 78.3124C44.0855 79.0267 44.4732 79.5711 45.1453 79.8529Z" fill="#C63663"/>
<path d="M36.2478 106.359L33.057 114.313C32.7834 114.989 32.0523 115.348 31.3519 115.149L18.4761 111.486C17.7757 111.287 17.3439 110.596 17.4677 109.878L22.1767 82.7624C22.2289 82.4624 22.41 82.1944 22.6655 82.0333C22.9266 81.8691 23.2437 81.8258 23.5344 81.9085L42.5904 87.3297C42.8856 87.4137 43.1279 87.6161 43.2632 87.8931C43.3942 88.1689 43.4081 88.4876 43.2943 88.77L42.0648 91.8305C42.7238 92.3089 43.1688 93.0031 43.3225 93.8004L45.9273 87.3012L47.8347 87.8439C48.6188 88.0669 49.4341 87.6121 49.658 86.8268C49.8818 86.0415 49.4285 85.2257 48.6445 85.0026L47.7679 84.7533L47.8463 83.9934C47.9657 83.3405 47.6403 82.6947 47.0594 82.4102L25.3119 71.0102C24.626 70.6768 23.7942 70.9552 23.4181 71.64L21.0318 76.0025L27.9344 77.9662C28.2295 78.0502 28.3951 78.3548 28.3121 78.646C28.2279 78.9416 27.9233 79.1078 27.6326 79.0251L19.6111 76.743C18.827 76.52 18.0116 76.9748 17.7878 77.7601C17.564 78.5454 18.0172 79.3612 18.8013 79.5843L20.7087 80.1269L15.5975 109.556C15.3065 111.228 16.3244 112.853 17.9543 113.317L30.8257 116.979C32.4599 117.443 34.182 116.598 34.8177 115.019L37.725 107.776C37.1504 107.369 36.6582 106.89 36.2478 106.359Z" fill="#EF6A00"/>
<path d="M28.0492 99.953L26.5647 99.5307L28.3502 93.2659L29.8347 93.6882C31.7245 94.2259 32.6788 95.8901 32.1532 97.7342C31.6276 99.5783 29.9389 100.491 28.0492 99.953ZM30.7047 90.101L27.7974 89.274C26.5552 88.9206 25.4001 89.5649 25.0455 90.8091L22.4602 99.8798C22.1056 101.124 22.7477 102.28 23.99 102.633L26.8973 103.46C31.0512 104.642 34.7362 102.723 35.8578 98.7881C36.9782 94.8572 34.8587 91.2828 30.7047 90.101Z" fill="#EF6A00"/>
<path d="M49.7732 97.2667C50.0863 96.1681 49.5342 95.1478 48.4638 94.8433C47.3889 94.5375 46.3861 95.1155 46.073 96.214L44.2987 102.439C43.9567 103.639 42.7846 104.326 41.6305 103.998C40.4764 103.67 39.8412 102.473 40.1845 101.269L41.9587 95.0436C42.2718 93.945 41.7197 92.9247 40.6493 92.6201C39.5745 92.3144 38.5716 92.8923 38.2585 93.9909L36.4377 100.379C35.4896 103.706 37.1981 106.701 40.59 107.665C43.9818 108.63 47.0131 106.984 47.9612 103.657L49.782 97.2692L49.7732 97.2667Z" fill="#EF6A00"/>
<path d="M71.8336 112.815L69.7 108.354L73.6158 105.743C74.1852 105.366 74.5544 104.922 74.6852 104.464C75.0046 103.343 74.3958 102.221 73.299 101.909C72.744 101.751 72.1374 101.907 71.451 102.394L66.8666 105.897L67.8599 102.412C68.1831 101.278 67.6562 100.303 66.5505 99.9887C65.4449 99.6742 64.4829 100.226 64.1597 101.359L61.2702 111.498C60.947 112.632 61.4739 113.607 62.5796 113.921C63.6852 114.236 64.6472 113.684 64.9704 112.551L65.9725 109.034L68.2436 114.583C68.5816 115.352 68.9492 115.733 69.513 115.894C70.6099 116.206 71.6474 115.59 71.9768 114.434C72.1308 113.91 72.0747 113.322 71.8336 112.815Z" fill="#EF6A00"/>
<path d="M79.4937 105.722C79.8169 104.588 79.29 103.613 78.1843 103.298C77.0787 102.984 76.1167 103.535 75.7935 104.669L72.904 114.807C72.5808 115.941 73.1077 116.916 74.2134 117.231C75.319 117.545 76.281 116.994 76.6042 115.86L79.4937 105.722Z" fill="#EF6A00"/>
<path d="M96.9778 110.81C97.3897 109.816 96.8125 108.951 96.0592 108.636C95.433 108.377 94.8756 108.428 94.4131 108.798C94.064 109.07 93.7614 109.547 93.4306 110.34C93.0879 111.158 92.9389 111.731 92.951 112.14C92.975 112.691 93.2746 113.11 93.79 113.323C94.7604 113.728 95.4732 113.048 96.5193 111.567C96.7338 111.265 96.9137 110.968 96.9778 110.81Z" fill="#C63663"/>
<path d="M53.3859 103.655L51.9097 108.835C51.5865 109.969 50.6246 110.52 49.5189 110.206C48.4133 109.891 47.8863 108.916 48.2095 107.782L51.0991 97.6438C51.4222 96.51 52.3842 95.9586 53.4899 96.2731C54.0229 96.4247 54.4552 96.7624 54.6586 97.135C54.8619 97.5076 57.7148 105.125 57.7148 105.125L59.1911 99.9459C59.5142 98.8121 60.4762 98.2606 61.5818 98.5752C62.6875 98.8897 63.2144 99.8647 62.8913 100.999L60.0017 111.137C59.6785 112.271 58.7165 112.822 57.6109 112.508C57.0779 112.356 56.6487 112.024 56.4422 111.646C56.2388 111.273 53.3859 103.655 53.3859 103.655Z" fill="#EF6A00"/>
<path d="M83.0711 112.1L81.5949 117.28C81.2717 118.414 80.3097 118.965 79.2041 118.651C78.0984 118.336 77.5715 117.361 77.8947 116.227L80.7843 106.089C81.1074 104.955 82.0694 104.404 83.1751 104.718C83.7081 104.87 84.1404 105.207 84.3438 105.58C84.5471 105.953 87.4 113.57 87.4 113.57L88.8762 108.391C89.1994 107.257 90.1614 106.706 91.267 107.02C92.3727 107.335 92.8996 108.31 92.5764 109.444L89.6869 119.582C89.3637 120.716 88.4017 121.267 87.2961 120.953C86.7631 120.801 86.3338 120.469 86.1274 120.091C85.924 119.718 83.0711 112.1 83.0711 112.1Z" fill="#EF6A00"/>
<path d="M92.0959 120.186L91.6554 120.061C91.5673 120.036 91.4937 120.077 91.4685 120.165L91.168 121.22C91.1428 121.308 91.1838 121.381 91.2675 121.405C91.3511 121.429 91.426 121.384 91.4499 121.3L91.548 120.956L91.7242 121.006L91.9194 121.524C91.9345 121.571 91.9723 121.606 92.0163 121.618C92.1044 121.643 92.1724 121.605 92.1975 121.517C92.2076 121.482 92.2019 121.452 92.1773 121.387L92.0571 121.058L92.1313 121.031C92.2584 120.986 92.3509 120.879 92.3924 120.733C92.4729 120.484 92.347 120.258 92.0959 120.186ZM91.8129 120.812L91.6058 120.753L91.7341 120.303L91.9411 120.362C92.0821 120.402 92.157 120.523 92.1193 120.655C92.0803 120.792 91.9538 120.852 91.8129 120.812Z" fill="#EF6A00"/>
<path d="M92.1763 119.537C91.4406 119.327 90.6756 119.739 90.4719 120.454C90.2682 121.169 90.7013 121.921 91.4369 122.131C92.1725 122.34 92.9376 121.928 93.1413 121.213C93.345 120.499 92.9119 119.746 92.1763 119.537ZM91.5035 121.897C90.9177 121.73 90.5733 121.117 90.7406 120.53C90.9078 119.944 91.5206 119.598 92.1109 119.766C92.7012 119.934 93.0411 120.546 92.8726 121.137C92.7054 121.724 92.0894 122.064 91.5035 121.897Z" fill="#EF6A00"/>
<g filter="url(#filter1_d_3090_16998)">
<rect width="97.4588" height="59.608" rx="4.57715" transform="matrix(0.724302 0.689482 -0.690151 0.723665 64.6824 0)" fill="white"/>
<rect x="0.00651318" y="0.269508" width="97.0773" height="59.2266" rx="4.38643" transform="matrix(0.724302 0.689482 -0.690151 0.723665 64.8702 0.0699836)" stroke="#B3B3B3" stroke-width="0.381429"/>
</g>
<path d="M88.3828 39.8305C88.5674 39.9437 88.6024 40.1375 88.488 40.2574C88.4023 40.3473 88.2721 40.3898 88.1031 40.2913C87.1732 39.7495 86.5712 40.2345 85.7937 41.2962C85.511 41.685 85.5023 41.8482 85.6265 41.995C85.8596 42.2742 86.2951 42.0023 86.5612 41.5692C87.2607 40.4046 88.0426 40.6628 88.3362 40.9708C88.599 41.2498 88.5946 41.5314 88.4516 41.6813C88.3372 41.8013 88.2349 41.8469 88.3317 42.0534C88.4438 42.2746 88.4625 42.3782 88.291 42.558C88.0195 42.8428 87.3487 43.1768 87.6025 43.6186C87.7289 43.8248 88.015 43.9254 88.3702 43.8918C88.5626 43.8747 89.0266 43.9734 89.3818 43.9395C89.781 43.8905 89.7149 43.7134 90.1946 43.8268C90.8235 43.9677 91.4934 43.6045 92.3214 43.9065C92.9537 44.1367 93.5288 44.4268 93.8796 44.2745C94.4789 44.0155 94.8232 43.2851 95.3377 43.5462C95.5952 43.6767 95.738 43.9273 95.5193 44.4339C95.3685 44.7767 95.4433 45.5914 94.8792 45.5978C94.4932 45.6022 93.6013 45.5825 93.2988 45.838C92.9393 46.1534 92.9998 46.583 92.6182 46.7059C92.2367 46.8287 91.7724 46.7302 91.3294 46.7946C90.9896 46.8429 90.7431 47.0087 90.4948 47.1154C88.7693 47.8467 88.5736 48.5755 88.139 48.8769C87.7773 49.1331 87.3186 49.1827 86.8436 49.1883C86.1311 49.1963 85.9629 49.4651 85.2325 49.399C84.7114 49.3606 84.133 49.7823 83.7932 50.2309C83.4248 50.7098 83.3917 51.4218 83.2552 52.1499C83.1178 52.8485 82.6988 53.1645 82.4065 52.8862C82.1601 52.6516 81.9523 52.2538 82.1093 51.6883C82.2667 51.1231 82.8738 50.271 82.4515 49.6974C82.0611 49.1829 81.8444 49.3483 81.5136 48.8332C81.3553 48.5681 81.1132 48.0517 80.6734 47.8046C80.0057 47.4266 79.6496 47.831 79.0866 47.4666C78.6764 47.2191 78.6126 46.7009 77.8779 46.116C77.3117 45.6628 75.9294 45.2335 74.9717 45.8374C74.7396 45.9884 74.4602 46.0655 74.2403 45.7419C74.0984 45.5212 73.9994 45.2552 74.1732 44.7342C74.5615 43.5881 74.4779 42.9366 74.1854 42.6581C73.8621 42.3504 73.7093 42.6338 73.4322 42.37C73.2629 42.2088 73.242 42.0459 73.2914 41.7785C73.4552 40.9906 73.441 40.6053 73.2759 40.1621C73.1266 39.7339 72.8427 39.2922 72.3181 38.7642C71.6552 38.1046 71.4594 37.2319 71.0878 36.0201C70.7172 34.8378 70.1675 34.8293 70.4367 34.0846C70.5578 33.7423 70.2212 33.0789 70.3169 32.455C70.5327 31.0586 71.8028 29.2649 72.8981 28.3627C73.7625 27.6412 74.5521 27.3059 75.2392 27.0164C75.7365 26.8032 76.0839 26.5621 76.4424 26.217C76.8579 25.8117 77.1384 26.1645 77.3628 26.2066C77.5871 26.2484 77.7543 25.9501 77.9743 26.2738C78.337 26.8479 78.689 27.9265 81.3621 31.129C83.942 34.214 84.935 34.9591 85.4728 35.4423C86.1952 36.1015 86.3745 36.9298 86.623 37.2236C86.9187 37.591 87.1475 37.7515 87.0484 37.8862C86.9781 37.9909 86.8901 38.0214 86.6361 37.9798C86.3821 37.9381 86.1246 37.8076 86.0709 37.9565C86.0171 38.1055 86.315 38.1317 86.4095 38.2788C86.5987 38.5734 87.2067 38.5516 87.5081 39.0673C87.618 39.2292 87.6542 39.4066 87.7763 39.4943C87.96 39.6406 88.1532 39.6898 88.3828 39.8305Z" fill="#C63663"/>
<path fill-rule="evenodd" clip-rule="evenodd" d="M108.082 53.8448C107.448 53.2409 106.444 53.2653 105.839 53.8989C105.235 54.5326 105.259 55.5357 105.894 56.1396C106.528 56.7434 107.532 56.719 108.136 56.0853C108.74 55.4517 108.716 54.4486 108.082 53.8448ZM102.353 53.9747C102.305 53.6974 102.152 53.4395 101.912 53.2699C101.673 53.1003 101.4 53.0313 101.123 53.079L98.2462 53.5745C97.9115 53.632 97.5867 53.5215 97.3584 53.3043C97.2034 53.1567 97.0931 52.9602 97.0539 52.7334C96.9571 52.1723 97.334 51.6389 97.8956 51.5421L100.931 51.0441C101.348 50.9721 101.748 50.9653 102.161 51.0646C102.554 51.159 102.923 51.3263 103.256 51.5622C103.592 51.8001 103.875 52.0952 104.096 52.4394C104.327 52.7976 104.48 53.1912 104.551 53.6089L105.228 57.4432C105.27 57.6473 105.381 57.8226 105.541 57.9374C105.649 58.0153 105.829 58.0992 106.069 58.058L109.377 57.4883C109.951 57.3894 110.497 57.7745 110.596 58.3481C110.695 58.922 110.31 59.4673 109.735 59.5662L106.314 60.1613C105.948 60.2245 105.566 60.2227 105.209 60.1446C104.85 60.0663 104.518 59.9202 104.222 59.7109C104.117 59.6363 104.018 59.5549 103.925 59.4671C103.507 59.0684 103.207 58.5302 103.106 57.9353L103.065 57.6968L99.5181 58.3051L100.164 62.0392C100.208 62.2996 100.175 62.564 100.068 62.8036C99.9688 63.025 99.8105 63.215 99.6101 63.3532C99.4098 63.4915 99.1758 63.5721 98.9335 63.5862C98.6711 63.6015 98.412 63.5389 98.1841 63.405L92.956 60.3312L90.1846 60.8194C89.831 60.8817 89.487 60.7655 89.2455 60.5357C89.0834 60.3814 88.9675 60.1759 88.9257 59.9386C88.8214 59.348 89.216 58.7848 89.8072 58.6807L94.5214 57.8502L96.8274 55.4323C97.403 54.8287 97.7241 54.7727 98.7161 54.5995L98.8168 54.5819L102.353 53.9747ZM97.2782 58.108L95.9067 59.5461L97.7101 60.6064L97.2782 58.108Z" fill="#C63663"/>
<path d="M52.1879 31.0194L49.6424 28.5962C48.5565 27.5625 47.0231 27.5939 45.996 28.6709L38.4937 36.5374C37.4666 37.6144 37.5093 39.1461 38.5952 40.1798L41.1408 42.603C44.7804 46.0676 49.5951 46.106 52.8481 42.6951C56.1012 39.2894 55.8302 34.4866 52.1879 31.0194ZM44.2008 39.649L42.8982 38.409L48.0799 32.9757L49.3824 34.2157C51.0371 35.7908 51.1279 38.0088 49.6013 39.6095C48.0747 41.2102 45.8554 41.224 44.2008 39.649Z" fill="#EF6A00"/>
<path d="M67.9679 48.7001C68.8772 47.7467 68.8531 46.4068 67.9134 45.5123C66.9737 44.6178 65.6304 44.6611 64.7237 45.6119L59.5754 51.0102C58.5816 52.0523 57.0122 52.116 55.9994 51.1519C54.9893 50.1904 54.9745 48.6186 55.9683 47.5765L61.1166 42.1782C62.0259 41.2247 62.0018 39.8849 61.0621 38.9904C60.1224 38.0959 58.7791 38.1392 57.8724 39.0899L52.5857 44.6333C49.8348 47.5178 49.9882 51.5067 52.9616 54.3372C55.9323 57.1651 59.9304 57.128 62.6813 54.2435L67.9679 48.7001Z" fill="#EF6A00"/>
<path d="M82.3368 76.5769L82.528 70.8561L87.9515 70.3158C88.7375 70.2391 89.3527 69.9895 89.7344 69.5893C90.6616 68.6171 90.6362 67.1377 89.6776 66.2252C89.1901 65.7612 88.4843 65.5965 87.5202 65.719L80.9338 66.8124L83.8179 63.7882C84.7554 62.8052 84.7328 61.5233 83.7633 60.6004C82.7939 59.6775 81.5111 59.717 80.5737 60.7L72.1852 69.4958C71.2478 70.4788 71.2703 71.7607 72.2398 72.6836C73.2092 73.6064 74.492 73.567 75.4294 72.584L78.3366 69.5357L77.7038 76.44C77.6385 77.4078 77.8158 77.9966 78.3113 78.4684C79.2727 79.3835 80.668 79.3181 81.626 78.3136C82.0562 77.8571 82.3154 77.2277 82.3368 76.5769Z" fill="#EF6A00"/>
<path d="M94.0028 73.4835C94.9403 72.5005 94.9178 71.2185 93.9483 70.2957C92.9788 69.3728 91.6961 69.4122 90.7586 70.3952L82.3702 79.191C81.4327 80.174 81.4552 81.456 82.4247 82.3788C83.3942 83.3017 84.6769 83.2623 85.6144 82.2793L94.0028 73.4835Z" fill="#EF6A00"/>
<path d="M109.257 88.1836C110.21 87.3951 110.082 86.1917 109.471 85.4616C108.966 84.8531 108.366 84.61 107.692 84.7317C107.186 84.8237 106.62 85.1461 105.86 85.7752C105.072 86.4286 104.609 86.9305 104.404 87.356C104.136 87.9303 104.218 88.5211 104.632 89.0182C105.418 89.9606 106.509 89.6513 108.375 88.7072C108.76 88.515 109.107 88.3078 109.257 88.1836Z" fill="#C63663"/>
<path d="M68.2651 57.1969L63.98 61.6902C63.0425 62.6732 61.7598 62.7126 60.7903 61.7897C59.8208 60.8669 59.7983 59.5849 60.7358 58.6019L69.1268 49.8034C70.0642 48.8204 71.347 48.781 72.3165 49.7039C72.7849 50.1498 73.0462 50.7264 73.0573 51.2186C73.0656 51.7083 71.9313 61.0455 71.9313 61.0455L76.2164 56.5522C77.1539 55.5692 78.4366 55.5298 79.4061 56.4527C80.3756 57.3755 80.3981 58.6575 79.4606 59.6405L71.0722 68.4363C70.1347 69.4193 68.852 69.4587 67.8825 68.5358C67.414 68.0899 67.1502 67.5159 67.1417 67.021C67.1279 66.5263 68.2651 57.1969 68.2651 57.1969Z" fill="#EF6A00"/>
<path d="M94.2705 81.952L89.9853 86.4452C89.0479 87.4282 87.7652 87.4676 86.7957 86.5448C85.8262 85.6219 85.8037 84.34 86.7411 83.357L95.1322 74.5585C96.0696 73.5755 97.3523 73.5361 98.3218 74.4589C98.7903 74.9049 99.0515 75.4815 99.0626 75.9737C99.071 76.4633 97.9366 85.8005 97.9366 85.8005L102.222 81.3073C103.159 80.3243 104.442 80.2849 105.411 81.2077C106.381 82.1306 106.403 83.4125 105.466 84.3955L97.0775 93.1914C96.1401 94.1743 94.8574 94.2138 93.8879 93.2909C93.4194 92.8449 93.1556 92.271 93.147 91.7761C93.1385 91.2812 94.2705 81.952 94.2705 81.952Z" fill="#EF6A00"/>
<path d="M98.3694 95.2716L98.0986 95.0138C98.0445 94.9622 97.976 94.9636 97.9248 95.0173L97.3126 95.6592C97.2614 95.7129 97.2633 95.7814 97.3147 95.8303C97.3662 95.8793 97.4372 95.8752 97.4859 95.8242L97.6857 95.6147L97.794 95.7178L97.7405 96.164C97.7337 96.2036 97.748 96.2428 97.7751 96.2686C97.8292 96.3201 97.8925 96.3188 97.9437 96.2651C97.9642 96.2436 97.9714 96.2198 97.9778 96.1644L98.0147 95.8818L98.0783 95.8911C98.1868 95.9073 98.2937 95.8656 98.3782 95.777C98.5296 95.629 98.5238 95.4185 98.3694 95.2716ZM97.9281 95.6098L97.8008 95.4886L98.0621 95.2147L98.1893 95.3358C98.276 95.4183 98.2845 95.534 98.2076 95.6145C98.1308 95.6951 98.0174 95.6948 97.9281 95.6098Z" fill="#EF6A00"/>
<path d="M98.6682 94.8336C98.216 94.4031 97.5096 94.407 97.0946 94.8421C96.6797 95.2772 96.7099 95.9823 97.1621 96.4128C97.6144 96.8433 98.3208 96.8394 98.7357 96.4043C99.1506 95.9692 99.1204 95.2641 98.6682 94.8336ZM97.2979 96.2705C96.9377 95.9276 96.9191 95.3565 97.2598 94.9993C97.6005 94.6421 98.1721 94.6278 98.535 94.9732C98.8952 95.3161 98.9137 95.8871 98.5705 96.247C98.2298 96.6042 97.6607 96.6159 97.2979 96.2705Z" fill="#EF6A00"/>
<defs>
<filter id="filter0_d_3090_16998" x="0.552409" y="57.5695" width="111.764" height="85.6425" filterUnits="userSpaceOnUse" color-interpolation-filters="sRGB">
<feFlood flood-opacity="0" result="BackgroundImageFix"/>
<feColorMatrix in="SourceAlpha" type="matrix" values="0 0 0 0 0 0 0 0 0 0 0 0 0 0 0 0 0 0 127 0" result="hardAlpha"/>
<feMorphology radius="0.381429" operator="dilate" in="SourceAlpha" result="effect1_dropShadow_3090_16998"/>
<feOffset dx="0.381429" dy="0.381429"/>
<feGaussianBlur stdDeviation="0.762858"/>
<feComposite in2="hardAlpha" operator="out"/>
<feColorMatrix type="matrix" values="0 0 0 0 0 0 0 0 0 0 0 0 0 0 0 0 0 0 0.15 0"/>
<feBlend mode="normal" in2="BackgroundImageFix" result="effect1_dropShadow_3090_16998"/>
<feBlend mode="normal" in="SourceGraphic" in2="effect1_dropShadow_3090_16998" result="shape"/>
</filter>
<filter id="filter1_d_3090_16998" x="23.913" y="0.367412" width="111.753" height="110.36" filterUnits="userSpaceOnUse" color-interpolation-filters="sRGB">
<feFlood flood-opacity="0" result="BackgroundImageFix"/>
<feColorMatrix in="SourceAlpha" type="matrix" values="0 0 0 0 0 0 0 0 0 0 0 0 0 0 0 0 0 0 127 0" result="hardAlpha"/>
<feMorphology radius="0.381429" operator="dilate" in="SourceAlpha" result="effect1_dropShadow_3090_16998"/>
<feOffset dx="0.381429" dy="0.381429"/>
<feGaussianBlur stdDeviation="0.762858"/>
<feComposite in2="hardAlpha" operator="out"/>
<feColorMatrix type="matrix" values="0 0 0 0 0 0 0 0 0 0 0 0 0 0 0 0 0 0 0.15 0"/>
<feBlend mode="normal" in2="BackgroundImageFix" result="effect1_dropShadow_3090_16998"/>
<feBlend mode="normal" in="SourceGraphic" in2="effect1_dropShadow_3090_16998" result="shape"/>
</filter>
</defs>
</svg>
