<svg xmlns="http://www.w3.org/2000/svg" width="54.642" height="42.369" viewBox="0 0 54.642 42.369"><defs><style>.a{fill:#ba0d30;}.b{fill:#002f6c;}</style></defs><g transform="translate(-254.891 -389.575)"><path class="a" d="M310.008,422.957l-.022-32.978h-9.145v19.2c0,.232,0,.462-.016.688,0,.089-.01.179-.017.267a2.216,2.216,0,0,1-1.113,1.639,2.39,2.39,0,0,1-1.194.319,2.253,2.253,0,0,1-2.322-2.154l.013-19.954H283.56v7.476h2.329a1.134,1.134,0,0,1,1.134,1.135v4.152h0v10.466a7.152,7.152,0,0,0,3.4,5.641c1.829,1.447,6.267,2.109,8.663,1.265a8.51,8.51,0,0,0,1.729-.765v1.856a2.9,2.9,0,0,1-.154,1.063,2.055,2.055,0,0,1-2.031,1.028l-39.075,0v8.692H301.9a16.483,16.483,0,0,0,3.523-.5c1.395-.427,4.586-1.923,4.586-6.652C310.01,424.765,310.009,423.027,310.008,422.957Z" transform="translate(-0.478 -0.041)"/><path class="b" d="M291.187,417.9l.083.049.076.057c1.511,1.195,5.485,1.763,7.46,1.064l.04-.013a6.916,6.916,0,0,0,1.407-.612l1.964-1.313v4.219a4.123,4.123,0,0,1-.225,1.48l-.02.057-.027.057a3.233,3.233,0,0,1-3.175,1.757H260.955v6.168c2.368,0,40.965,0,41.048,0a15.267,15.267,0,0,0,3.2-.442c1.379-.424,3.695-1.7,3.695-5.448,0,0-.022-31.262-.023-33.594h-6.624v17.935l-.017.752-.021.323-.005.036a3.51,3.51,0,0,1-1.736,2.578,3.678,3.678,0,0,1-4.422-.586,3.3,3.3,0,0,1-.984-2.334s.012-16.489.013-18.7H284.966v4.953h1.067a2.4,2.4,0,0,1,2.4,2.4v4.152h0V413.3A5.871,5.871,0,0,0,291.187,417.9Z" transform="translate(-0.622 -0.185)"/><path class="a" d="M282.633,412.59a1.135,1.135,0,0,1-1.135-1.135V411.3c0-.015,0-.031,0-.047,0-.264,0-.536,0-.809v-5.452c0-.66,0-1.068,0-1.068l0-1.716v-6.48a5.811,5.811,0,0,0-.12-.823,5.989,5.989,0,0,0-.9-2.106,6.965,6.965,0,0,0-4.286-2.908A9.8,9.8,0,0,0,268,391.364v-1.426h-13.11l0,7.5h3.05a1.137,1.137,0,0,1,1.136,1.136v21.269h8.931V399.757h0a2.254,2.254,0,0,1,4.5-.046v16.211a3.876,3.876,0,0,0,3.86,3.86h8.379v-7.19h-2.117Z" transform="translate(0 0)"/><path class="b" d="M280.381,411.6v-.126l0-.053,0-.834v-5.45l0-1.072,0-1.713v-6.414c-.009-.057-.091-.617-.091-.617a4.7,4.7,0,0,0-.714-1.664,5.69,5.69,0,0,0-3.555-2.4,8.5,8.5,0,0,0-7.109,1.254l-2.026,1.551v-2.719H256.3c0,1.393,0,3.583,0,4.975h1.789a2.4,2.4,0,0,1,2.4,2.4v20.008h6.409V400.1s0-.21,0-.2a3.515,3.515,0,0,1,7.026-.046v16.211a2.572,2.572,0,0,0,.165.9,2.609,2.609,0,0,0,2.432,1.7h7.117V414h-.855A2.4,2.4,0,0,1,280.381,411.6Z" transform="translate(-0.144 -0.144)"/></g></svg>